<?xml version="1.0" encoding="iso-8859-1"?>
<!-- Uploaded to: SVG Repo, www.svgrepo.com, Generator: SVG Repo Mixer Tools -->
<svg height="800px" width="800px" version="1.1" id="Layer_1" xmlns="http://www.w3.org/2000/svg" xmlns:xlink="http://www.w3.org/1999/xlink" 
	 viewBox="0 0 512 512" xml:space="preserve">
<path style="fill:#EFEFEF;" d="M10.751,84.661v191.496c0,19.482,15.794,35.276,35.276,35.276h251.895l50.599,79.841l50.598-79.841
	h66.856c19.482,0,35.276-15.794,35.276-35.276V84.661c0-19.482-15.794-35.276-35.276-35.276H46.026
	C26.545,49.386,10.751,65.18,10.751,84.661z"/>
<path style="fill:#E8594F;" d="M221.285,110.53c-19.852,0-36.679,15.504-42.555,36.967c-5.877-21.464-22.701-36.967-42.555-36.967
	c-24.739,0-44.794,24.067-44.794,53.753c0,59.129,87.349,92.724,87.349,92.724s87.349-33.596,87.349-92.724
	C266.079,134.597,246.023,110.53,221.285,110.53z"/>
<g>
	<path style="fill:#231F20;" d="M465.974,38.635H46.026C20.647,38.635,0,59.282,0,84.661v191.496
		c0,25.38,20.647,46.026,46.026,46.026h245.979l47.433,74.845c1.971,3.111,5.398,4.996,9.08,4.996c3.683,0,7.11-1.885,9.08-4.996
		l47.433-74.845h60.941c25.38,0,46.026-20.647,46.026-46.026V84.661C512,59.282,491.353,38.635,465.974,38.635z M490.499,276.157
		c0,13.523-11.002,24.525-24.525,24.525h-66.856c-3.682,0-7.109,1.885-9.08,4.996l-41.519,65.512L307,305.679
		c-1.971-3.11-5.398-4.995-9.08-4.995H46.026c-13.523,0-24.525-11.002-24.525-24.525V84.661c0-13.523,11.002-24.525,24.525-24.525
		h419.948c13.523,0,24.525,11.002,24.525,24.525V276.157z"/>
	<path style="fill:#231F20;" d="M221.285,99.78c-16.856,0-32.249,8.673-42.555,22.942c-10.305-14.27-25.699-22.942-42.555-22.942
		c-30.627,0-55.545,28.937-55.545,64.504c0,65.756,90.393,101.278,94.24,102.759c1.242,0.477,2.551,0.716,3.859,0.716
		c1.309,0,2.618-0.239,3.859-0.716c3.847-1.481,94.24-37.002,94.24-102.759C276.829,128.716,251.912,99.78,221.285,99.78z
		 M178.73,245.347c-16.066-7.056-76.598-36.609-76.598-81.064c0-23.712,15.273-43.003,34.043-43.003
		c14.493,0,27.428,11.677,32.186,29.056c1.279,4.673,5.524,7.911,10.369,7.911s9.09-3.24,10.369-7.911
		c4.759-17.38,17.693-29.056,32.186-29.056c18.772,0,34.043,19.291,34.043,43.003C255.328,208.739,194.795,238.291,178.73,245.347z"
		/>
	<path style="fill:#231F20;" d="M421.963,243.57h-21.501V105.158c0-0.003,0-0.007,0-0.009c0-0.382-0.015-0.683-0.044-0.919
		c-0.21-2.435-1.24-4.814-3.106-6.677c-4.198-4.198-11.005-4.198-15.203,0l-53.753,53.753c-4.199,4.198-4.199,11.005,0,15.203
		c2.099,2.099,4.85,3.149,7.602,3.149c2.752,0,5.503-1.05,7.602-3.149l35.401-35.399V243.57h-36.283
		c-5.937,0-10.751,4.814-10.751,10.751c0,5.937,4.814,10.751,10.751,10.751h79.286c5.937,0,10.751-4.814,10.751-10.751
		C432.714,248.383,427.9,243.57,421.963,243.57z"/>
	<path style="fill:#231F20;" d="M487.811,451.863H356.115c-5.937,0-10.751,4.814-10.751,10.751c0,5.937,4.814,10.751,10.751,10.751
		h131.696c5.937,0,10.751-4.814,10.751-10.751C498.562,456.677,493.748,451.863,487.811,451.863z"/>
	<path style="fill:#231F20;" d="M298.331,451.863h-81.974c-5.937,0-10.751,4.814-10.751,10.751c0,5.937,4.814,10.751,10.751,10.751
		h81.974c5.937,0,10.751-4.814,10.751-10.751C309.081,456.677,304.268,451.863,298.331,451.863z"/>
	<path style="fill:#231F20;" d="M177.386,451.863H28.22c-5.937,0-10.751,4.814-10.751,10.751c0,5.937,4.814,10.751,10.751,10.751
		h149.165c5.937,0,10.751-4.814,10.751-10.751C188.136,456.677,183.323,451.863,177.386,451.863z"/>
</g>
</svg>